<svg width="559" height="404" viewBox="0 0 559 404" fill="none" xmlns="http://www.w3.org/2000/svg">
<g clip-path="url(#clip0)">
<path d="M558.192 400.705H0.807803C0.593561 400.705 0.388092 400.62 0.2366 400.468C0.085107 400.317 0 400.112 0 399.897C0 399.683 0.085107 399.478 0.2366 399.326C0.388092 399.175 0.593561 399.089 0.807803 399.089H558.192C558.406 399.089 558.612 399.175 558.763 399.326C558.915 399.478 559 399.683 559 399.897C559 400.112 558.915 400.317 558.763 400.468C558.612 400.62 558.406 400.705 558.192 400.705Z" fill="#CCCCCC"/>
<path d="M503.023 259.823H175.054C173.662 259.823 172.326 260.376 171.341 261.361C170.357 262.346 169.804 263.681 169.804 265.074C169.804 266.466 170.357 267.802 171.341 268.787C172.326 269.771 173.662 270.325 175.054 270.325H184.344V395.938C184.344 397.331 184.897 398.666 185.882 399.651C186.867 400.635 188.202 401.189 189.595 401.189C190.987 401.189 192.323 400.635 193.308 399.651C194.292 398.666 194.845 397.331 194.845 395.938L194.925 270.325H482.424V395.938C482.424 397.331 482.977 398.666 483.961 399.651C484.946 400.635 486.282 401.189 487.674 401.189C489.067 401.189 490.402 400.635 491.387 399.651C492.372 398.666 492.925 397.331 492.925 395.938V273.093L494.453 270.325H503.023C504.415 270.325 505.751 269.771 506.735 268.787C507.72 267.802 508.273 266.466 508.273 265.074C508.273 263.681 507.72 262.346 506.735 261.361C505.751 260.376 504.415 259.823 503.023 259.823Z" fill="#CCCCCC"/>
<path d="M356.882 262.571H257.537C255.614 262.568 253.769 261.803 252.409 260.443C251.049 259.083 250.284 257.239 250.282 255.315V200.619C250.284 198.696 251.049 196.852 252.409 195.491C253.769 194.131 255.614 193.366 257.537 193.364H356.882C358.806 193.366 360.65 194.131 362.011 195.491C363.371 196.852 364.136 198.696 364.138 200.619V255.315C364.136 257.239 363.371 259.083 362.011 260.443C360.65 261.803 358.806 262.568 356.882 262.571Z" fill="#3F3D56"/>
<path d="M356.882 198.948H257.538C257.095 198.949 256.67 199.126 256.357 199.439C256.044 199.752 255.867 200.177 255.866 200.62V255.317C255.867 255.76 256.044 256.185 256.357 256.498C256.67 256.812 257.095 256.988 257.538 256.989H356.882C357.325 256.988 357.75 256.812 358.064 256.498C358.377 256.185 358.553 255.76 358.554 255.317V200.62C358.553 200.177 358.377 199.752 358.064 199.439C357.75 199.126 357.325 198.949 356.882 198.948Z" fill="white"/>
<path d="M315.683 237.673C315.683 237.673 303.791 234.932 297.25 239.957C290.709 244.981 305.574 256.399 305.574 256.399L315.683 237.673Z" fill="#2F2E41"/>
<path d="M307.792 232.495C313.988 232.495 319.01 227.472 319.01 221.277C319.01 215.081 313.988 210.059 307.792 210.059C301.597 210.059 296.574 215.081 296.574 221.277C296.574 227.472 301.597 232.495 307.792 232.495Z" fill="#A0616A"/>
<path d="M299.118 205.529C299.866 204.26 300.95 203.221 302.251 202.529C303.552 201.837 305.019 201.518 306.49 201.607C308.029 201.8 309.53 202.22 310.946 202.854L318.279 205.715C320.177 206.455 322.255 207.362 323.078 209.225C323.843 210.954 323.273 212.951 322.695 214.751L319.952 223.308C319.648 221.372 319.126 219.475 318.397 217.656C317.656 215.824 316.316 214.296 314.597 213.323C312.692 212.345 310.446 212.366 308.308 212.468C305.279 212.614 301.987 213 299.835 215.136C298.692 216.349 297.918 217.861 297.602 219.497C297.29 221.124 297.133 222.778 297.133 224.434C295.891 222.299 294.845 220.057 294.008 217.733C293.319 216.003 292.926 214.169 292.846 212.309C292.774 210.433 293.397 208.596 294.595 207.15C295.203 206.443 295.996 205.92 296.886 205.64C297.775 205.36 298.725 205.335 299.628 205.565L299.118 205.529Z" fill="#2F2E41"/>
<path d="M334.578 247.4C334.473 247.021 334.258 246.682 333.96 246.425C333.663 246.168 333.296 246.004 332.906 245.954C332.88 245.936 332.853 245.92 332.825 245.906L316.078 236.521C315.6 236.253 315.037 236.179 314.506 236.316C313.975 236.453 313.518 236.789 313.228 237.254L308.648 244.67L301.749 237.771L301.64 237.662C301.286 237.308 300.818 237.09 300.319 237.046C299.821 237.002 299.322 237.136 298.912 237.423L285.149 247.061C285.125 247.061 285.1 247.069 285.076 247.069C284.417 247.179 283.816 247.51 283.371 248.008C282.926 248.506 282.664 249.141 282.628 249.808L282.273 256.989H337.236L334.578 247.4Z" fill="#3EB6D0"/>
<path d="M365.255 255.873H354.65C354.65 255.577 354.533 255.293 354.323 255.084C354.114 254.875 353.83 254.757 353.534 254.757H350.185C349.889 254.757 349.605 254.875 349.396 255.084C349.187 255.293 349.069 255.577 349.069 255.873H345.72C345.72 255.577 345.603 255.293 345.393 255.084C345.184 254.875 344.9 254.757 344.604 254.757H341.255C340.959 254.757 340.675 254.875 340.466 255.084C340.257 255.293 340.139 255.577 340.139 255.873H336.79C336.79 255.577 336.673 255.293 336.464 255.084C336.254 254.875 335.97 254.757 335.674 254.757H332.326C332.029 254.757 331.746 254.875 331.536 255.084C331.327 255.293 331.209 255.577 331.209 255.873H327.861C327.861 255.577 327.743 255.293 327.534 255.084C327.324 254.875 327.04 254.757 326.744 254.757H323.396C323.1 254.757 322.816 254.875 322.606 255.084C322.397 255.293 322.279 255.577 322.279 255.873H318.931C318.931 255.577 318.813 255.293 318.604 255.084C318.394 254.875 318.111 254.757 317.814 254.757H314.466C314.17 254.757 313.886 254.875 313.676 255.084C313.467 255.293 313.35 255.577 313.35 255.873H310.001C310.001 255.577 309.883 255.293 309.674 255.084C309.465 254.875 309.181 254.757 308.885 254.757H305.536C305.24 254.757 304.956 254.875 304.747 255.084C304.537 255.293 304.42 255.577 304.42 255.873H301.071C301.071 255.577 300.953 255.293 300.744 255.084C300.535 254.875 300.251 254.757 299.955 254.757H296.606C296.31 254.757 296.026 254.875 295.817 255.084C295.607 255.293 295.49 255.577 295.49 255.873H292.141C292.141 255.577 292.023 255.293 291.814 255.084C291.605 254.875 291.321 254.757 291.025 254.757H287.676C287.38 254.757 287.096 254.875 286.887 255.084C286.677 255.293 286.56 255.577 286.56 255.873H283.211C283.211 255.577 283.093 255.293 282.884 255.084C282.675 254.875 282.391 254.757 282.095 254.757H278.746C278.45 254.757 278.166 254.875 277.957 255.084C277.748 255.293 277.63 255.577 277.63 255.873H274.281C274.281 255.577 274.164 255.293 273.954 255.084C273.745 254.875 273.461 254.757 273.165 254.757H269.816C269.52 254.757 269.236 254.875 269.027 255.084C268.818 255.293 268.7 255.577 268.7 255.873H265.351C265.351 255.577 265.234 255.293 265.024 255.084C264.815 254.875 264.531 254.757 264.235 254.757H260.886C260.59 254.757 260.306 254.875 260.097 255.084C259.888 255.293 259.77 255.577 259.77 255.873H249.166C248.279 255.875 247.428 256.228 246.801 256.856C246.174 257.484 245.822 258.335 245.822 259.222C245.822 260.109 246.174 260.96 246.801 261.588C247.428 262.216 248.279 262.569 249.166 262.571H365.255C366.143 262.571 366.994 262.218 367.622 261.59C368.25 260.962 368.603 260.11 368.603 259.222C368.603 258.334 368.25 257.482 367.622 256.854C366.994 256.226 366.143 255.873 365.255 255.873Z" fill="#3F3D56"/>
<path d="M231.904 236.426V258.662H176.196C174.703 258.714 173.216 258.465 171.821 257.929C170.427 257.394 169.155 256.583 168.081 255.546C167.007 254.508 166.152 253.265 165.569 251.89C164.985 250.516 164.685 249.038 164.685 247.544C164.685 246.051 164.985 244.572 165.569 243.198C166.152 241.823 167.007 240.58 168.081 239.542C169.155 238.505 170.427 237.694 171.821 237.159C173.216 236.624 174.703 236.374 176.196 236.426H231.904Z" fill="#F2F2F2"/>
<path d="M233.272 258.491C233.272 258.717 233.182 258.935 233.021 259.095C232.861 259.256 232.644 259.346 232.417 259.346H175.203C172.096 259.346 169.116 258.111 166.919 255.914C164.722 253.717 163.487 250.737 163.487 247.63C163.487 244.522 164.722 241.542 166.919 239.345C169.116 237.148 172.096 235.913 175.203 235.913H232.417C232.644 235.913 232.861 236.003 233.021 236.164C233.182 236.324 233.272 236.542 233.272 236.768C233.272 236.995 233.182 237.213 233.021 237.373C232.861 237.534 232.644 237.624 232.417 237.624H175.203C172.551 237.626 170.009 238.681 168.134 240.557C166.259 242.434 165.207 244.977 165.207 247.63C165.207 250.282 166.259 252.825 168.134 254.702C170.009 256.578 172.551 257.633 175.203 257.635H232.417C232.644 257.636 232.861 257.726 233.021 257.886C233.182 258.046 233.272 258.264 233.272 258.491Z" fill="#3EB6D0"/>
<path d="M231.903 241.558H172.039C172.016 241.558 171.994 241.554 171.973 241.545C171.952 241.536 171.933 241.524 171.917 241.508C171.901 241.492 171.888 241.473 171.88 241.452C171.871 241.432 171.867 241.409 171.867 241.387C171.867 241.364 171.871 241.342 171.88 241.321C171.888 241.3 171.901 241.281 171.917 241.265C171.933 241.249 171.952 241.237 171.973 241.228C171.994 241.22 172.016 241.215 172.039 241.216H231.903C231.948 241.216 231.992 241.234 232.023 241.266C232.055 241.298 232.073 241.341 232.073 241.387C232.073 241.432 232.055 241.475 232.023 241.507C231.992 241.539 231.948 241.557 231.903 241.558Z" fill="#CCCCCC"/>
<path d="M231.903 245.663H172.039C172.016 245.663 171.994 245.658 171.973 245.65C171.952 245.641 171.933 245.629 171.917 245.613C171.901 245.597 171.888 245.578 171.88 245.557C171.871 245.536 171.867 245.514 171.867 245.492C171.867 245.469 171.871 245.447 171.88 245.426C171.888 245.405 171.901 245.386 171.917 245.37C171.933 245.354 171.952 245.342 171.973 245.333C171.994 245.325 172.016 245.32 172.039 245.32H231.903C231.948 245.321 231.992 245.339 232.023 245.371C232.055 245.403 232.073 245.446 232.073 245.492C232.073 245.537 232.055 245.58 232.023 245.612C231.992 245.644 231.948 245.662 231.903 245.663Z" fill="#CCCCCC"/>
<path d="M231.903 249.768H172.039C172.016 249.768 171.994 249.764 171.973 249.755C171.952 249.747 171.933 249.734 171.917 249.718C171.901 249.702 171.888 249.683 171.88 249.663C171.871 249.642 171.867 249.619 171.867 249.597C171.867 249.574 171.871 249.552 171.88 249.531C171.888 249.51 171.901 249.491 171.917 249.475C171.933 249.46 171.952 249.447 171.973 249.438C171.994 249.43 172.016 249.426 172.039 249.426H231.903C231.948 249.426 231.992 249.444 232.023 249.476C232.055 249.508 232.073 249.552 232.073 249.597C232.073 249.642 232.055 249.685 232.023 249.717C231.992 249.749 231.948 249.768 231.903 249.768Z" fill="#CCCCCC"/>
<path d="M231.903 253.873H172.039C172.016 253.873 171.994 253.869 171.973 253.86C171.952 253.852 171.933 253.839 171.917 253.823C171.901 253.807 171.888 253.788 171.88 253.767C171.871 253.747 171.867 253.724 171.867 253.702C171.867 253.679 171.871 253.657 171.88 253.636C171.888 253.615 171.901 253.596 171.917 253.58C171.933 253.564 171.952 253.552 171.973 253.543C171.994 253.535 172.016 253.53 172.039 253.531H231.903C231.948 253.531 231.992 253.549 232.023 253.581C232.055 253.613 232.073 253.657 232.073 253.702C232.073 253.747 232.055 253.79 232.023 253.822C231.992 253.854 231.948 253.872 231.903 253.873Z" fill="#CCCCCC"/>
<path d="M221.402 213V235.235H165.694C164.202 235.287 162.714 235.038 161.32 234.503C159.926 233.968 158.654 233.157 157.579 232.12C156.505 231.082 155.651 229.839 155.067 228.464C154.484 227.089 154.183 225.611 154.183 224.118C154.183 222.624 154.484 221.146 155.067 219.771C155.651 218.397 156.505 217.154 157.579 216.116C158.654 215.079 159.926 214.268 161.32 213.733C162.714 213.197 164.202 212.948 165.694 213H221.402Z" fill="#F2F2F2"/>
<path d="M222.771 235.064C222.77 235.291 222.68 235.509 222.52 235.669C222.36 235.829 222.142 235.919 221.915 235.92H164.702C163.163 235.92 161.64 235.616 160.218 235.028C158.797 234.439 157.505 233.576 156.417 232.488C155.329 231.4 154.466 230.108 153.877 228.687C153.289 227.265 152.986 225.742 152.986 224.203C152.986 222.665 153.289 221.141 153.877 219.72C154.466 218.298 155.329 217.006 156.417 215.919C157.505 214.831 158.797 213.968 160.218 213.379C161.64 212.79 163.163 212.487 164.702 212.487H221.915C222.142 212.487 222.36 212.577 222.52 212.737C222.68 212.898 222.771 213.115 222.771 213.342C222.771 213.569 222.68 213.786 222.52 213.947C222.36 214.107 222.142 214.197 221.915 214.197H164.702C162.05 214.2 159.507 215.255 157.633 217.131C155.758 219.007 154.705 221.551 154.705 224.203C154.705 226.855 155.758 229.399 157.633 231.275C159.507 233.152 162.05 234.207 164.702 234.209H221.915C222.142 234.209 222.36 234.299 222.52 234.46C222.68 234.62 222.77 234.838 222.771 235.064Z" fill="#3F3D56"/>
<path d="M221.402 218.131H161.537C161.515 218.132 161.492 218.127 161.471 218.119C161.451 218.11 161.432 218.098 161.416 218.082C161.4 218.066 161.387 218.047 161.378 218.026C161.37 218.005 161.365 217.983 161.365 217.96C161.365 217.938 161.37 217.915 161.378 217.895C161.387 217.874 161.4 217.855 161.416 217.839C161.432 217.823 161.451 217.811 161.471 217.802C161.492 217.793 161.515 217.789 161.537 217.789H221.402C221.447 217.79 221.49 217.808 221.522 217.84C221.554 217.872 221.572 217.915 221.572 217.96C221.572 218.006 221.554 218.049 221.522 218.081C221.49 218.113 221.447 218.131 221.402 218.131Z" fill="#CCCCCC"/>
<path d="M221.402 222.236H161.537C161.515 222.236 161.492 222.232 161.471 222.224C161.451 222.215 161.432 222.202 161.416 222.187C161.4 222.171 161.387 222.152 161.378 222.131C161.37 222.11 161.365 222.088 161.365 222.065C161.365 222.043 161.37 222.02 161.378 221.999C161.387 221.979 161.4 221.96 161.416 221.944C161.432 221.928 161.451 221.915 161.471 221.907C161.492 221.898 161.515 221.894 161.537 221.894H221.402C221.447 221.894 221.49 221.913 221.522 221.945C221.554 221.977 221.572 222.02 221.572 222.065C221.572 222.11 221.554 222.154 221.522 222.186C221.49 222.218 221.447 222.236 221.402 222.236Z" fill="#CCCCCC"/>
<path d="M221.402 226.342H161.537C161.515 226.342 161.492 226.337 161.471 226.329C161.451 226.32 161.432 226.308 161.416 226.292C161.4 226.276 161.387 226.257 161.378 226.236C161.37 226.215 161.365 226.193 161.365 226.17C161.365 226.148 161.37 226.126 161.378 226.105C161.387 226.084 161.4 226.065 161.416 226.049C161.432 226.033 161.451 226.021 161.471 226.012C161.492 226.004 161.515 225.999 161.537 225.999H221.402C221.447 226 221.49 226.018 221.522 226.05C221.554 226.082 221.572 226.125 221.572 226.17C221.572 226.216 221.554 226.259 221.522 226.291C221.49 226.323 221.447 226.341 221.402 226.342Z" fill="#CCCCCC"/>
<path d="M221.402 230.446H161.537C161.515 230.447 161.492 230.442 161.471 230.434C161.451 230.425 161.432 230.413 161.416 230.397C161.4 230.381 161.387 230.362 161.378 230.341C161.37 230.32 161.365 230.298 161.365 230.275C161.365 230.253 161.37 230.23 161.378 230.21C161.387 230.189 161.4 230.17 161.416 230.154C161.432 230.138 161.451 230.126 161.471 230.117C161.492 230.108 161.515 230.104 161.537 230.104H221.402C221.447 230.105 221.49 230.123 221.522 230.155C221.554 230.187 221.572 230.23 221.572 230.275C221.572 230.321 221.554 230.364 221.522 230.396C221.49 230.428 221.447 230.446 221.402 230.446Z" fill="#CCCCCC"/>
<path d="M286.207 337.696V318.309C286.207 317.452 285.866 316.63 285.261 316.024C284.655 315.418 283.833 315.078 282.976 315.078H209.466C208.609 315.078 207.787 315.418 207.181 316.024C206.575 316.63 206.234 317.452 206.234 318.309V337.696H286.207Z" fill="#CCCCCC"/>
<path d="M286.207 344.967H206.234V370.009H286.207V344.967Z" fill="#CCCCCC"/>
<path d="M206.234 377.279V396.666C206.234 397.523 206.575 398.345 207.181 398.951C207.787 399.557 208.609 399.897 209.466 399.897H282.976C283.833 399.897 284.655 399.557 285.261 398.951C285.866 398.345 286.207 397.523 286.207 396.666V377.279H206.234Z" fill="#CCCCCC"/>
<path d="M245.817 329.618C247.155 329.618 248.24 328.533 248.24 327.195C248.24 325.857 247.155 324.772 245.817 324.772C244.478 324.772 243.393 325.857 243.393 327.195C243.393 328.533 244.478 329.618 245.817 329.618Z" fill="white"/>
<path d="M245.817 361.931C247.155 361.931 248.24 360.846 248.24 359.507C248.24 358.169 247.155 357.084 245.817 357.084C244.478 357.084 243.393 358.169 243.393 359.507C243.393 360.846 244.478 361.931 245.817 361.931Z" fill="white"/>
<path d="M245.947 393.559C247.285 393.559 248.37 392.474 248.37 391.135C248.37 389.797 247.285 388.712 245.947 388.712C244.609 388.712 243.524 389.797 243.524 391.135C243.524 392.474 244.609 393.559 245.947 393.559Z" fill="white"/>
<path d="M277.141 292.973V315.208H221.433C219.94 315.26 218.453 315.011 217.058 314.475C215.664 313.94 214.392 313.13 213.318 312.092C212.244 311.055 211.389 309.811 210.806 308.437C210.222 307.062 209.922 305.584 209.922 304.09C209.922 302.597 210.222 301.119 210.806 299.744C211.389 298.369 212.244 297.126 213.318 296.089C214.392 295.051 215.664 294.24 217.058 293.705C218.453 293.17 219.94 292.921 221.433 292.973H277.141Z" fill="#F2F2F2"/>
<path d="M278.509 315.037C278.509 315.264 278.419 315.481 278.259 315.642C278.098 315.802 277.881 315.892 277.654 315.892H220.441C218.901 315.893 217.377 315.591 215.954 315.003C214.531 314.415 213.239 313.552 212.15 312.464C211.061 311.376 210.197 310.084 209.607 308.662C209.018 307.24 208.715 305.715 208.715 304.176C208.715 302.636 209.018 301.112 209.607 299.69C210.197 298.268 211.061 296.976 212.15 295.888C213.239 294.8 214.531 293.937 215.954 293.349C217.377 292.76 218.901 292.458 220.441 292.459H277.654C277.881 292.459 278.098 292.55 278.259 292.71C278.419 292.87 278.509 293.088 278.509 293.315C278.509 293.541 278.419 293.759 278.259 293.919C278.098 294.08 277.881 294.17 277.654 294.17H220.441C217.789 294.172 215.246 295.227 213.371 297.104C211.497 298.98 210.444 301.524 210.444 304.176C210.444 306.828 211.497 309.372 213.371 311.248C215.246 313.124 217.789 314.179 220.441 314.182H277.654C277.881 314.182 278.098 314.272 278.259 314.432C278.419 314.593 278.509 314.81 278.509 315.037Z" fill="#3F3D56"/>
<path d="M277.14 298.104H217.276C217.253 298.104 217.231 298.1 217.21 298.091C217.189 298.083 217.17 298.07 217.154 298.054C217.138 298.038 217.125 298.019 217.117 297.999C217.108 297.978 217.104 297.955 217.104 297.933C217.104 297.91 217.108 297.888 217.117 297.867C217.125 297.846 217.138 297.827 217.154 297.812C217.17 297.796 217.189 297.783 217.21 297.774C217.231 297.766 217.253 297.762 217.276 297.762H277.14C277.185 297.762 277.229 297.78 277.26 297.812C277.292 297.844 277.31 297.888 277.31 297.933C277.31 297.978 277.292 298.021 277.26 298.053C277.229 298.085 277.185 298.104 277.14 298.104Z" fill="#CCCCCC"/>
<path d="M277.14 302.209H217.276C217.253 302.209 217.231 302.205 217.21 302.196C217.189 302.188 217.17 302.175 217.154 302.159C217.138 302.143 217.125 302.124 217.117 302.103C217.108 302.083 217.104 302.06 217.104 302.038C217.104 302.015 217.108 301.993 217.117 301.972C217.125 301.951 217.138 301.932 217.154 301.916C217.17 301.9 217.189 301.888 217.21 301.879C217.231 301.871 217.253 301.867 217.276 301.867H277.14C277.185 301.867 277.229 301.885 277.26 301.917C277.292 301.949 277.31 301.993 277.31 302.038C277.31 302.083 277.292 302.126 277.26 302.158C277.229 302.19 277.185 302.208 277.14 302.209Z" fill="#CCCCCC"/>
<path d="M277.14 306.314H217.276C217.253 306.314 217.231 306.31 217.21 306.301C217.189 306.293 217.17 306.28 217.154 306.264C217.138 306.248 217.125 306.23 217.117 306.209C217.108 306.188 217.104 306.166 217.104 306.143C217.104 306.12 217.108 306.098 217.117 306.077C217.125 306.056 217.138 306.038 217.154 306.022C217.17 306.006 217.189 305.993 217.21 305.985C217.231 305.976 217.253 305.972 217.276 305.972H277.14C277.185 305.972 277.229 305.99 277.26 306.022C277.292 306.055 277.31 306.098 277.31 306.143C277.31 306.188 277.292 306.232 277.26 306.264C277.229 306.296 277.185 306.314 277.14 306.314Z" fill="#CCCCCC"/>
<path d="M277.14 310.419H217.276C217.253 310.419 217.231 310.415 217.21 310.406C217.189 310.398 217.17 310.385 217.154 310.369C217.138 310.353 217.125 310.334 217.117 310.314C217.108 310.293 217.104 310.27 217.104 310.248C217.104 310.225 217.108 310.203 217.117 310.182C217.125 310.161 217.138 310.142 217.154 310.127C217.17 310.111 217.189 310.098 217.21 310.09C217.231 310.081 217.253 310.077 217.276 310.077H277.14C277.185 310.077 277.229 310.095 277.26 310.127C277.292 310.159 277.31 310.203 277.31 310.248C277.31 310.293 277.292 310.336 277.26 310.368C277.229 310.401 277.185 310.419 277.14 310.419Z" fill="#CCCCCC"/>
<path d="M202.04 147.845V6.07571C202.042 4.46486 202.683 2.92051 203.822 1.78147C204.961 0.642422 206.505 0.00169496 208.116 -0.000137329H320.181C321.792 0.00170563 323.336 0.642436 324.476 1.78148C325.615 2.92052 326.255 4.46486 326.257 6.07571V147.845C326.255 149.456 325.615 151 324.476 152.139C323.336 153.278 321.792 153.919 320.181 153.921H208.116C206.505 153.919 204.961 153.278 203.822 152.139C202.683 151 202.042 149.456 202.04 147.845ZM208.116 1.35005C206.863 1.35145 205.662 1.84979 204.776 2.73572C203.89 3.62164 203.392 4.82282 203.39 6.07571V147.845C203.392 149.098 203.89 150.299 204.776 151.185C205.662 152.071 206.863 152.569 208.116 152.571H320.181C321.434 152.569 322.635 152.071 323.521 151.185C324.407 150.299 324.906 149.098 324.907 147.845V6.07571C324.906 4.82282 324.407 3.62164 323.521 2.73572C322.635 1.84979 321.434 1.35146 320.181 1.35005H208.116Z" fill="#E6E6E6"/>
<path d="M270.433 65.107V35.9972C270.434 35.1918 270.754 34.4196 271.323 33.8501C271.893 33.2805 272.665 32.9602 273.471 32.9593H298.138C298.944 32.9602 299.716 33.2805 300.286 33.8501C300.855 34.4196 301.176 35.1918 301.176 35.9972V65.107C301.176 65.9124 300.855 66.6846 300.286 67.2541C299.716 67.8236 298.944 68.144 298.138 68.1449H273.471C272.665 68.144 271.893 67.8236 271.323 67.2541C270.754 66.6846 270.434 65.9124 270.433 65.107Z" fill="#3EB6D0"/>
<path d="M222.501 78.6088V49.4991C222.502 48.6937 222.822 47.9215 223.392 47.3519C223.961 46.7824 224.733 46.4621 225.539 46.4612H250.207C251.012 46.4621 251.784 46.7824 252.354 47.3519C252.923 47.9215 253.244 48.6937 253.245 49.4991V78.6088C253.244 79.4143 252.923 80.1865 252.354 80.756C251.784 81.3255 251.012 81.6459 250.207 81.6468H225.539C224.733 81.6459 223.961 81.3255 223.392 80.756C222.822 80.1864 222.502 79.4142 222.501 78.6088Z" fill="#CCCCCC"/>
<path d="M260.981 119.789V90.6797C260.982 89.8743 261.303 89.1021 261.872 88.5326C262.442 87.963 263.214 87.6427 264.019 87.6418H288.687C289.493 87.6427 290.265 87.963 290.834 88.5326C291.404 89.1021 291.724 89.8743 291.725 90.6797V119.789C291.724 120.595 291.404 121.367 290.834 121.937C290.265 122.506 289.493 122.826 288.687 122.827H264.019C263.214 122.826 262.442 122.506 261.872 121.937C261.303 121.367 260.982 120.595 260.981 119.789Z" fill="#CCCCCC"/>
<path d="M408.395 252.877H383.014C382.773 252.877 382.535 252.932 382.319 253.039L375.913 256.246C375.703 256.335 375.523 256.485 375.396 256.676C375.27 256.867 375.203 257.091 375.203 257.32C375.203 257.549 375.27 257.773 375.396 257.964C375.523 258.155 375.703 258.305 375.913 258.395L382.319 261.602C382.535 261.708 382.773 261.763 383.014 261.763H408.395C408.745 261.783 409.089 261.665 409.352 261.434C409.615 261.202 409.776 260.877 409.801 260.527V254.113C409.776 253.764 409.615 253.438 409.352 253.207C409.089 252.975 408.745 252.857 408.395 252.877Z" fill="#3F3D56"/>
<path d="M409.801 254.113V260.527C409.776 260.876 409.615 261.202 409.352 261.433C409.089 261.665 408.745 261.783 408.395 261.763H403.338V252.877H408.395C408.745 252.857 409.089 252.975 409.352 253.206C409.615 253.438 409.776 253.763 409.801 254.113Z" fill="#3EB6D0"/>
<path d="M408.205 204.893C409.354 204.397 410.596 204.15 411.848 204.167C413.1 204.184 414.334 204.465 415.47 204.993C416.605 205.52 417.617 206.281 418.438 207.227C419.259 208.172 419.87 209.281 420.233 210.479C420.346 210.859 420.433 211.246 420.492 211.638L455.985 229.239L464.199 223.795L474.419 235.561L461.877 245.747C460.369 246.963 458.509 247.66 456.574 247.734C454.638 247.809 452.73 247.258 451.133 246.162L415.121 221.259C414.853 221.372 414.58 221.472 414.302 221.558C413.103 221.92 411.841 222.025 410.599 221.866C409.357 221.707 408.163 221.287 407.094 220.635C406.025 219.982 405.107 219.11 404.399 218.078C403.69 217.045 403.208 215.874 402.984 214.642C402.917 214.285 402.874 213.923 402.853 213.56C402.753 211.742 403.212 209.937 404.169 208.387C405.126 206.838 406.534 205.618 408.205 204.893Z" fill="#FFB8B8"/>
<path d="M482.13 313.259H443.348C443.348 314.374 403.378 315.279 403.378 315.279C402.75 315.751 402.178 316.293 401.673 316.894C400.155 318.705 399.325 320.994 399.33 323.357V324.972C399.331 327.65 400.395 330.218 402.289 332.111C404.182 334.005 406.75 335.069 409.428 335.07H482.13C484.807 335.068 487.374 334.003 489.268 332.11C491.161 330.217 492.225 327.65 492.228 324.972V323.357C492.224 320.68 491.159 318.114 489.266 316.221C487.373 314.328 484.807 313.263 482.13 313.259Z" fill="#3F3D56"/>
<path d="M439.944 402.524H450.445V334.669H439.944V402.524Z" fill="#3F3D56"/>
<path d="M410.055 402.155C410.055 403.29 425.968 402.594 445.598 402.594C465.228 402.594 481.142 403.29 481.142 402.155C481.142 401.021 465.228 392.023 445.598 392.023C425.968 392.023 410.055 401.021 410.055 402.155Z" fill="#3F3D56"/>
<path d="M419.535 394.202L409.632 394.201L404.92 368.516L419.537 368.516L419.535 394.202Z" fill="#FFB8B8"/>
<path d="M422.061 403.802L390.128 403.801V403.397C390.128 401.765 390.45 400.149 391.074 398.641C391.699 397.133 392.614 395.763 393.768 394.608C394.923 393.454 396.293 392.539 397.801 391.914C399.309 391.289 400.925 390.968 402.557 390.968H402.558L422.062 390.969L422.061 403.802Z" fill="#2F2E41"/>
<path d="M404.723 378.274L384.98 334C383.331 330.269 383.149 326.053 384.469 322.193C385.789 318.333 388.515 315.112 392.103 313.172L434.928 290.208L454.47 288.545L472.496 286.907L472.625 287.127C472.792 287.408 476.667 294.102 474.048 301.443C472.06 307.011 466.891 311.36 458.684 314.369C439.528 321.393 417.398 327.397 408.773 329.651C408.392 329.749 408.036 329.926 407.728 330.171C407.42 330.416 407.167 330.723 406.987 331.073C406.806 331.418 406.698 331.797 406.671 332.187C406.644 332.576 406.697 332.966 406.828 333.334L425.171 374.543C425.362 375.066 425.431 375.626 425.372 376.179C425.313 376.733 425.128 377.265 424.831 377.736C424.533 378.207 424.132 378.603 423.657 378.894C423.183 379.184 422.648 379.362 422.093 379.414L408.388 380.412C408.271 380.423 408.156 380.428 408.04 380.428C407.338 380.428 406.652 380.225 406.063 379.842C405.474 379.46 405.009 378.915 404.723 378.274Z" fill="#2F2E41"/>
<path d="M424.382 394.202L414.479 394.201L409.767 368.516L424.383 368.516L424.382 394.202Z" fill="#FFB8B8"/>
<path d="M426.908 403.802L394.975 403.801V403.397C394.975 401.765 395.296 400.149 395.921 398.641C396.546 397.133 397.461 395.763 398.615 394.608C399.769 393.454 401.14 392.539 402.648 391.914C404.156 391.289 405.772 390.968 407.404 390.968H407.405L426.908 390.969L426.908 403.802Z" fill="#2F2E41"/>
<path d="M410.378 380.697L390.634 336.424C388.986 332.692 388.804 328.476 390.124 324.617C391.444 320.757 394.17 317.536 397.758 315.595L440.583 292.631L460.124 290.969L478.15 289.33L478.28 289.55C478.446 289.831 482.322 296.526 479.702 303.866C477.715 309.434 472.546 313.783 464.339 316.793C445.182 323.817 423.053 329.82 414.428 332.075C414.046 332.172 413.69 332.349 413.382 332.594C413.074 332.839 412.822 333.147 412.641 333.496C412.46 333.842 412.353 334.221 412.326 334.61C412.298 334.999 412.352 335.39 412.483 335.757L430.825 376.967C431.017 377.49 431.086 378.049 431.027 378.603C430.968 379.156 430.783 379.689 430.485 380.159C430.188 380.63 429.787 381.026 429.312 381.317C428.837 381.608 428.302 381.786 427.748 381.837L414.042 382.835C413.926 382.846 413.81 382.852 413.695 382.852C412.993 382.852 412.306 382.648 411.717 382.266C411.129 381.883 410.664 381.339 410.378 380.697Z" fill="#2F2E41"/>
<path d="M400.537 245.446C392.241 234.411 385.682 222.17 381.089 209.15C380.823 208.371 380.842 207.523 381.142 206.757C381.443 205.991 382.005 205.356 382.73 204.966L411.121 189.754C411.58 189.506 412.09 189.366 412.611 189.345C413.133 189.324 413.652 189.422 414.13 189.632C414.617 189.843 415.049 190.163 415.394 190.567C415.738 190.971 415.986 191.448 416.118 191.962C419.423 204.508 425.634 216.101 434.25 225.801C434.605 226.196 434.865 226.667 435.01 227.177C435.155 227.687 435.182 228.224 435.089 228.747C434.999 229.261 434.793 229.748 434.486 230.17C434.18 230.593 433.781 230.94 433.32 231.185L404.93 246.397C404.203 246.784 403.363 246.901 402.559 246.727C401.755 246.553 401.038 246.099 400.537 245.446Z" fill="#CCCCCC"/>
<path d="M402.474 243.991C402.627 244.181 402.841 244.313 403.08 244.362C403.319 244.411 403.568 244.376 403.784 244.261L432.175 229.049C432.313 228.977 432.432 228.874 432.524 228.748C432.615 228.623 432.676 228.477 432.702 228.324C432.732 228.162 432.723 227.996 432.678 227.838C432.632 227.68 432.551 227.534 432.439 227.413C423.57 217.427 417.175 205.493 413.774 192.576C413.734 192.417 413.658 192.268 413.552 192.143C413.446 192.018 413.312 191.919 413.161 191.853C413.019 191.79 412.864 191.76 412.708 191.766C412.553 191.773 412.401 191.815 412.264 191.89L383.874 207.103C383.659 207.219 383.491 207.406 383.4 207.633C383.309 207.86 383.299 208.111 383.374 208.344C387.885 221.131 394.326 233.153 402.474 243.991Z" fill="white"/>
<path d="M494.854 241.389L472.62 249.838L467.191 234.759C466.47 232.756 466.481 230.564 467.22 228.568C467.959 226.573 469.38 224.903 471.232 223.854C473.105 222.792 475.296 222.436 477.408 222.848C479.521 223.261 481.417 224.415 482.753 226.103L494.854 241.389Z" fill="#3EB6D0"/>
<path d="M438.3 301.133C437.832 300.802 437.44 300.376 437.15 299.881C436.86 299.387 436.678 298.837 436.617 298.267C433.769 271.682 435.753 250.878 442.68 234.664C443.901 231.868 445.739 229.384 448.057 227.401C450.375 225.417 453.112 223.984 456.063 223.21L474.036 222.303L474.13 222.348C478.185 224.334 481.493 227.575 483.562 231.589C485.631 235.604 486.351 240.178 485.616 244.634C479.835 259.872 474.995 275.737 478.686 288.535C478.841 289.07 478.886 289.631 478.819 290.184C478.752 290.736 478.574 291.27 478.295 291.753C478.025 292.219 477.663 292.625 477.23 292.946C476.797 293.267 476.303 293.495 475.778 293.618L441.545 301.761C440.99 301.893 440.414 301.905 439.855 301.797C439.295 301.689 438.765 301.463 438.3 301.133Z" fill="#3EB6D0"/>
<path d="M468.038 215.59C478.996 215.59 487.879 206.707 487.879 195.749C487.879 184.792 478.996 175.909 468.038 175.909C457.08 175.909 448.198 184.792 448.198 195.749C448.198 206.707 457.08 215.59 468.038 215.59Z" fill="#FFB8B8"/>
<path d="M412.984 211.464L397.522 218.289C396.933 218.548 396.267 218.563 395.668 218.331C395.069 218.099 394.586 217.638 394.326 217.051L393.943 216.185C393.685 215.597 393.67 214.93 393.902 214.331C394.134 213.732 394.594 213.249 395.182 212.989L410.644 206.163C411.233 205.905 411.899 205.89 412.498 206.122C413.097 206.354 413.58 206.814 413.84 207.402L414.223 208.268C414.481 208.856 414.496 209.523 414.264 210.122C414.032 210.721 413.572 211.204 412.984 211.464Z" fill="#CCCCCC"/>
<path d="M418.639 221.965L403.176 228.791C402.588 229.05 401.921 229.065 401.322 228.832C400.723 228.6 400.241 228.14 399.981 227.552L399.598 226.686C399.339 226.098 399.324 225.431 399.556 224.832C399.789 224.233 400.249 223.75 400.836 223.49L416.299 216.665C416.887 216.406 417.554 216.391 418.153 216.623C418.752 216.855 419.235 217.316 419.495 217.903L419.877 218.77C420.136 219.358 420.151 220.024 419.919 220.623C419.687 221.223 419.226 221.705 418.639 221.965Z" fill="#CCCCCC"/>
<path d="M430.564 262.983L396.091 235.787C395.817 235.884 395.537 235.966 395.254 236.034C394.037 236.319 392.775 236.344 391.547 236.109C390.32 235.874 389.156 235.383 388.131 234.668C387.099 233.953 386.232 233.026 385.588 231.948C384.943 230.871 384.536 229.668 384.394 228.421C384.163 226.427 384.612 224.413 385.669 222.707C386.726 221 388.329 219.701 390.217 219.02C391.396 218.597 392.651 218.428 393.899 218.524C395.147 218.62 396.361 218.978 397.462 219.576C398.562 220.174 399.523 220.997 400.283 221.992C401.043 222.987 401.584 224.132 401.871 225.351C401.96 225.737 402.022 226.129 402.056 226.524L436.373 246.321L444.912 241.404L454.373 253.789L441.113 263.24C439.561 264.337 437.696 264.905 435.796 264.859C433.895 264.812 432.061 264.155 430.564 262.983Z" fill="#FFB8B8"/>
<path d="M458.578 257.647L438.909 244.272L448.153 231.18C449.381 229.441 451.183 228.193 453.242 227.655C455.301 227.117 457.484 227.324 459.405 228.239C461.348 229.165 462.896 230.756 463.769 232.724C464.642 234.691 464.783 236.907 464.166 238.969L458.578 257.647Z" fill="#3EB6D0"/>
<path d="M460.764 192.794C455.665 196.284 448.969 199.872 443.761 196.155C440.341 193.715 439.263 189.196 440.65 185.23C443.144 178.098 449.996 174.958 456.548 172.552C465.066 169.423 474.34 166.934 483.134 169.175C491.927 171.415 499.698 179.929 498.111 188.863C496.834 196.048 490.057 202.026 491.019 209.26C491.987 216.54 500.175 220.372 507.403 221.673C514.631 222.974 522.719 223.392 527.913 228.584C534.54 235.207 532.885 247.045 526.65 254.038C520.415 261.03 511.005 264.2 501.888 266.355C489.807 269.21 476.741 270.71 465.268 265.972C453.795 261.234 444.867 248.479 448.19 236.52C449.594 231.468 452.901 227.198 456.097 223.042C459.294 218.885 462.53 214.539 463.749 209.439C464.765 205.19 464.013 200.256 461.195 197.068C460.683 196.51 460.36 195.804 460.274 195.051C460.187 194.298 460.342 193.538 460.715 192.878L460.764 192.794Z" fill="#2F2E41"/>
<path d="M88.1091 289.192C82.9966 290.989 77.5074 291.439 72.1704 290.499C66.8334 289.559 61.8285 287.26 57.6378 283.825C46.9651 274.867 43.6189 260.109 40.8962 246.443C38.2118 232.97 35.5274 219.497 32.843 206.024L49.7032 217.634C61.8281 225.982 74.226 234.599 82.6212 246.691C91.0164 258.784 94.6809 275.292 87.9357 288.377" fill="#E6E6E6"/>
<path d="M86.6676 338.128C88.3741 325.698 90.1288 313.108 88.9318 300.545C87.8687 289.387 84.4647 278.49 77.5346 269.554C73.8561 264.82 69.3801 260.764 64.3078 257.568C62.9851 256.734 61.7677 258.83 63.0847 259.661C71.8612 265.208 78.6496 273.398 82.471 283.052C86.6917 293.787 87.3695 305.49 86.6422 316.894C86.2023 323.79 85.2701 330.641 84.3307 337.484C84.2567 337.793 84.3029 338.119 84.46 338.396C84.6171 338.673 84.8734 338.879 85.177 338.974C85.4869 339.058 85.8171 339.016 86.0962 338.857C86.3752 338.699 86.5805 338.437 86.6676 338.128H86.6676Z" fill="#F2F2F2"/>
<path d="M70.2314 316.133C68.0387 319.465 65.0247 322.177 61.4799 324.006C57.935 325.836 53.9787 326.722 49.9921 326.579C39.7466 326.092 31.2051 318.942 23.5162 312.153L0.773865 292.073L15.8255 291.353C26.6498 290.835 37.7533 290.352 48.063 293.69C58.3727 297.028 67.8809 305.061 69.7661 315.732" fill="#E6E6E6"/>
<path d="M91.4903 345.273C83.2768 330.74 73.7498 314.588 56.7267 309.425C51.9934 307.995 47.0303 307.482 42.1046 307.915C40.5522 308.049 40.9398 310.442 42.4895 310.309C50.746 309.623 58.9867 311.803 65.824 316.482C72.4035 320.961 77.5263 327.187 81.8623 333.79C84.5182 337.834 86.8971 342.05 89.2766 346.26C90.037 347.606 92.2596 346.634 91.4903 345.273Z" fill="#F2F2F2"/>
<path d="M104.651 360.571C104.374 357.364 103.223 354.295 101.322 351.697C99.4217 349.1 96.8449 347.073 93.8724 345.839V337.437H79.7804V346.104C76.9542 347.399 74.522 349.42 72.7317 351.961C70.9413 354.503 69.8569 357.473 69.589 360.571L66.2754 399.09H107.964L104.651 360.571Z" fill="#F2F2F2"/>
</g>
<defs>
<clipPath id="clip0">
<rect width="559" height="403.802" fill="white"/>
</clipPath>
</defs>
</svg>
