<svg xmlns="http://www.w3.org/2000/svg" width="123" height="60" fill-rule="evenodd" fill="#0aa5ff" xmlns:v="https://vecta.io/nano"><path d="M100.33 43.065c-3.068-.693-7.237-1.692-12.07-2.6-.518.58-.98 1.32-1.103 2.198-.13.92.142 1.794.51 2.5 9.37 1.87 16.693 4.218 16.693 4.218s1.25-5.123-4.03-6.316m-74.988-8.903c0-7.685-19.618-4.78-19.618-13.4 0-8.547 9.688-17.603 15.347-17.264 4.526.272-1.102 11.45-5.512 14.993a.273.273 0 0 0-.083.32c.256.592 1.246 2.308 4.13 2.308 2.45 0 7.512-7.12 7.512-14.14 0-3.9-2.153-6.97-6.505-6.97C9.307 0 0 8.282 0 18.303c0 14.28 20.26 11.26 20.26 16.785 0 3.94-5.588 7.22-11.865 7.342a.413.413 0 0 0-.407.38c-.082 1.1-.044 4.235 3.052 4.235 7.605 0 14.304-6.362 14.304-12.883m28.864 1.623a.411.411 0 0 0 .475-.39c.02-.48.06-1.02.123-1.608l.002.001s3.146-15.347 6.966-15.347c1.16 0 1.298 1.267 1.06 2.643l-.006.036c-.924 4.736-1.405 7.48-1.405 10.735 0 2.1 3.044 2.83 4.384 3.05a.547.547 0 0 0 .635-.496l.015.006s3.04-15.975 6.86-15.975c1.16 0 1.298 1.267 1.062 2.643l-.007.036c-.924 4.736-1.616 7.572-1.616 10.828 0 2.1 3.044 2.83 4.384 3.05a.548.548 0 0 0 .637-.513c.16-3.348 1.2-7.473 2.1-12.422l.054-.304.1-.516c.28-1.575.53-3 .53-3.577a4.01 4.01 0 0 0-1.278-2.935l-.002-.003c-.794-.755-1.952-1.296-3.456-1.465a9.106 9.106 0 0 0-1.025-.056c-1.5 0-3.45 1.074-6.278 7.84.265-1.496.495-2.82.495-3.38a4.01 4.01 0 0 0-1.278-2.936l-.002-.003c-.794-.755-1.953-1.296-3.456-1.465a9.105 9.105 0 0 0-1.025-.056c-1.443 0-3.373.72-6.085 6.73.24-1.413.397-2.53.397-3.143 0-3-3.03-3.556-4.286-3.653a.547.547 0 0 0-.584.478c-.428 3.44-3 13.6-3 19.09 0 2.186 3.298 2.9 4.54 3.076"/><path d="M95.525 18.7c1.158 0 1.7 1.155 1.7 2.968 0 6.385-3.026 12.152-8.575 12.152-.42 0-.837-.04-1.248-.107l.968-5.34c1.972-5.7 4.735-9.673 7.154-9.673M27.01 57.64c-2.448 0-3.433-1.606-3.433-2.63 0-.56-.64-5.952 13.283-9.35-2.12 6.85-5.024 11.98-9.85 11.98m64.935-21.285c6.493 0 10.642-6.15 10.642-14.807 0-4.823-2.162-8.08-5.94-8.08-2.2 0-3.94.522-7.042 7.23.19-1.516.304-2.84.304-3.904 0-3.098-3.208-3.586-4.4-3.66a.41.41 0 0 0-.436.4c-.116 6.077-2.704 16.595-4.243 25.693-4.624-.645-9.582-1.092-14.6-1.092-9.08 0-16.35.5-22.175 1.3 1.1-4.44 2.04-9.838 2.694-16.403.264-2.654.53-5.25.475-6.4-.15-3.107-3.403-3.43-4.576-3.445a.411.411 0 0 0-.416.414l.008 1.43c-.22 4.138-3.754 18.894-8.2 18.894-1.42 0-1.145-2.38-1.145-3.433s1.924-11.213 1.924-13.82c0-3.12-3.252-3.593-4.414-3.662a.41.41 0 0 0-.434.375c-.296 3.515-2.206 13.068-2.206 18.184 0 4.28 2.7 6.796 5.027 6.796 3.53 0 6.173-4.372 7.753-8.566l-2.3 10.63C20.71 44.16 20.614 51.35 20.614 53.922c0 4.06 3.03 6.075 5.864 6.075 2.933 0 10.794.22 16.105-15.473 6.2-.988 14.414-1.63 25.305-1.63 3.966 0 8.168.387 12.255.97-.266 2.114-.428 4.073-.428 5.784 0 2.62 3.215 4.17 4.538 4.697a.41.41 0 0 0 .563-.375c.072-5.354 1.13-12.053 2.26-18.432 1.272.484 2.87.815 4.868.815m16.222 9.25c-.986.504-1.193 2.07-.462 3.498s2.123 2.177 3.1 1.673 1.192-2.07.46-3.498-2.123-2.177-3.1-1.673m12.185-1.222c0-10.448 2.636-16.492 2.636-21.843 0-3.162-1.424-5.846-5.28-5.84-2.302.003-4.394.94-6.927 6.84 1.05-7.486 2.137-15.093 3.576-19.505a.408.408 0 0 0-.278-.52c-1.14-.318-4.333-.9-5.35 2.018-1.834 5.275-3.13 18.933-5.34 29.665-.673 3.274 1.07 4.996 4.4 6.037a.412.412 0 0 0 .533-.351c.108-1.073.382-3.66.68-5.474 1.485-7.55 4.656-14.22 7.015-14.223 3.482-.005-.865 11.41-.865 22.45 0 6.402 3.258 7.996 6.735 7.398a.274.274 0 0 0 .174-.433c-.548-.748-1.71-2.742-1.71-6.22"/></svg>
